<svg width="590" height="594" viewBox="0 0 590 594" fill="none" xmlns="http://www.w3.org/2000/svg">
<g clip-path="url(#clip0_360_3430)" filter="url(#filter0_d_360_3430)">
<path fill-rule="evenodd" clip-rule="evenodd" d="M389.803 198.727C389.808 198.915 389.659 199.071 389.471 199.074L187.027 203.69C174.922 203.966 162.676 204.275 151.216 207.973C139.761 211.67 129.03 219.293 124.474 230.359C118.875 243.956 123.784 260.181 133.32 271.487C142.856 282.795 156.282 290.055 169.723 296.41C230.815 325.297 298.346 340.465 365.923 340.48C381.917 340.483 397.933 339.652 413.952 338.821C414.851 338.775 415.751 338.728 416.65 338.682C416.837 338.672 416.997 338.816 417.007 339.005C417.016 339.192 416.872 339.352 416.685 339.361C415.784 339.408 414.883 339.455 413.981 339.502C397.967 340.332 381.934 341.163 365.922 341.16C298.245 341.146 230.615 325.954 169.432 297.025C155.985 290.667 142.44 283.356 132.8 271.926C123.159 260.495 118.119 244.005 123.844 230.099C128.502 218.789 139.434 211.06 151.008 207.325C162.577 203.592 174.924 203.286 187.011 203.009L389.455 198.395C389.643 198.39 389.799 198.539 389.803 198.727Z" fill="#5068A9"/>
<path fill-rule="evenodd" clip-rule="evenodd" d="M335.8 494.947V124.405H337.16V494.947H335.8Z" fill="#86A6DF"/>
<path opacity="0.15" d="M335.798 494.948C233.641 494.948 150.527 411.834 150.527 309.677C150.527 207.52 233.641 124.406 335.798 124.406" fill="#86A6DF"/>
<path opacity="0.15" d="M335.798 454.782C255.786 454.782 190.691 389.687 190.691 309.676C190.691 229.664 255.786 164.569 335.798 164.569" fill="#86A6DF"/>
<path opacity="0.25" d="M335.799 414.617C277.933 414.617 230.856 367.541 230.856 309.675C230.856 251.808 277.933 204.733 335.799 204.733" fill="#86A6DF"/>
<path opacity="0.5" d="M335.798 374.454C300.023 374.454 271.021 345.452 271.021 309.677C271.021 273.901 300.023 244.899 335.798 244.899" fill="#86A6DF"/>
<path d="M335.798 342.95C317.421 342.95 302.524 328.053 302.524 309.677C302.524 291.3 317.421 276.403 335.798 276.403" fill="#86A6DF"/>
<path d="M426.886 300.787L395.565 368.863L390.476 379.933H313.921L308.831 368.863L277.511 300.787L287.786 247.284L330.727 231.675H373.669L416.611 247.284L426.886 300.787Z" fill="#5068A9"/>
<path d="M373.377 199.886V240.208C373.377 242.14 372.431 243.937 370.893 245.107C361.66 252.089 341.615 251.694 333.837 245.066C332.259 243.726 331.02 242.018 331.02 239.943V199.886H373.377Z" fill="#73A5FF"/>
<path d="M363.941 234.386C355.103 241.266 347.309 241.028 340.456 234.386V206.574H363.941V234.386Z" fill="#86A6DF"/>
<path opacity="0.42" d="M373.377 199.886V217.06C358.859 226.844 344.799 229.287 331.02 217.196V199.886H373.377Z" fill="black"/>
<path fill-rule="evenodd" clip-rule="evenodd" d="M342.178 209.207H362.22V232.451L362.004 232.618C358.382 235.438 354.912 236.848 351.594 236.822C348.266 236.797 345.184 235.329 342.347 232.579L342.178 232.415V209.207ZM343.292 210.322V231.941C345.927 234.436 348.691 235.685 351.603 235.707C354.525 235.73 357.686 234.516 361.105 231.904V210.322H343.292Z" fill="#5068A9"/>
<path d="M352.216 217.011H346.606C330.293 217.011 317.067 203.786 317.067 187.472V152.569C317.067 136.255 330.293 134.708 346.606 134.708H352.216C368.531 134.708 381.756 136.255 381.756 152.569V187.472C381.756 203.786 368.531 217.011 352.216 217.011Z" fill="#86A6DF"/>
<path fill-rule="evenodd" clip-rule="evenodd" d="M99.1783 373.925C81.3603 369.414 61.0598 370.731 46.7362 382.116C39.5869 387.799 34.6773 396.42 33.0121 405.385C31.3471 414.35 32.9302 423.626 38.717 430.647C38.8365 430.792 38.8158 431.007 38.6708 431.126C38.5258 431.245 38.3114 431.225 38.1919 431.08C32.25 423.87 30.65 414.377 32.3431 405.261C34.036 396.146 39.0257 387.375 46.3129 381.583C60.8621 370.019 81.4084 368.724 99.3453 373.266C115.083 377.251 129.437 385.162 143.651 392.994C145.63 394.085 147.606 395.174 149.584 396.252C215.698 432.264 263.627 456.474 337.925 468.238C338.111 468.268 338.237 468.442 338.208 468.628C338.178 468.813 338.004 468.94 337.819 468.911C263.4 457.127 215.386 432.868 149.258 396.849C147.276 395.77 145.298 394.679 143.318 393.588C129.096 385.752 114.824 377.887 99.1783 373.925Z" fill="#5068A9"/>
<path opacity="0.15" d="M588.484 378.3H391.465V389.118H588.484V378.3ZM588.484 400.142H391.465V410.96H588.484V400.142ZM588.484 421.986H391.465V432.803H588.484V421.986Z" fill="#86A6DF"/>
<path d="M105.478 458.942C137.508 458.942 163.474 432.976 163.474 400.945C163.474 368.915 137.508 342.949 105.478 342.949C73.447 342.949 47.4812 368.915 47.4812 400.945C47.4812 432.976 73.447 458.942 105.478 458.942ZM248.451 96.0703H28.6353V116.132H248.451V96.0703Z" fill="#5068A9"/>
<path opacity="0.15" d="M248.451 124.435H28.6353V266.32H248.451V124.435Z" fill="#86A6DF"/>
<path opacity="0.15" d="M93.1969 134.466H39.915V254.416H93.1969V134.466ZM157.885 134.466H104.603V141.27H157.885V134.466ZM221.507 134.466H168.225V141.27H221.507V134.466ZM157.885 157.977H104.603V190.785H157.885V157.977ZM157.885 199.424H104.603V232.233H157.885V199.424ZM93.1969 260.818H39.915V308.472H93.1969V260.818ZM221.507 157.977H168.225V190.785H221.507V157.977ZM221.507 199.424H168.225V232.233H221.507V199.424Z" fill="#86A6DF"/>
<path fill-rule="evenodd" clip-rule="evenodd" d="M386.763 205.811C386.763 205.624 386.916 205.471 387.103 205.471H461.519C461.707 205.471 461.859 205.624 461.859 205.811C461.859 206 461.707 206.152 461.519 206.152H387.103C386.916 206.152 386.763 206 386.763 205.811ZM407.72 200.474C407.72 200.287 407.872 200.134 408.06 200.134H461.518C461.707 200.134 461.859 200.287 461.859 200.474C461.859 200.663 461.707 200.815 461.518 200.815H408.06C407.872 200.815 407.72 200.663 407.72 200.474ZM407.72 195.138C407.72 194.95 407.872 194.798 408.06 194.798H475.536C475.725 194.798 475.877 194.95 475.877 195.138C475.877 195.326 475.725 195.478 475.536 195.478H408.06C407.872 195.478 407.72 195.326 407.72 195.138ZM407.72 189.801C407.72 189.613 407.872 189.46 408.06 189.46H461.518C461.707 189.46 461.859 189.613 461.859 189.801C461.859 189.989 461.707 190.141 461.518 190.141H408.06C407.872 190.141 407.72 189.989 407.72 189.801Z" fill="#5068A9"/>
<path d="M105.478 400.946H163.474C163.474 432.762 137.293 458.942 105.478 458.942C73.6614 458.942 47.481 432.762 47.481 400.946C47.481 369.13 73.6614 342.949 105.478 342.949C117.537 342.949 129.301 346.711 139.123 353.707L105.478 400.946Z" fill="#86A6DF"/>
<path d="M99.8892 389.1H157.886C157.886 420.915 131.705 447.095 99.8892 447.095C68.0736 447.095 41.8931 420.915 41.8931 389.1C41.8931 362.636 60.0058 339.368 85.6605 332.876L99.8892 389.1Z" fill="#73A5FF"/>
<path fill-rule="evenodd" clip-rule="evenodd" d="M116.743 473.719H41.8931V470.316H116.743V473.719ZM116.743 486.793H41.8931V483.391H116.743V486.793Z" fill="#86A6DF"/>
<path fill-rule="evenodd" clip-rule="evenodd" d="M391.635 462.597C391.635 447.187 379.143 434.695 363.732 434.695V433.334C379.894 433.334 392.996 446.436 392.996 462.597C392.996 478.759 379.894 491.86 363.732 491.86C347.571 491.86 334.47 478.759 334.47 462.597H335.831C335.831 478.007 348.323 490.5 363.732 490.5C379.143 490.5 391.635 478.007 391.635 462.597Z" fill="#5068A9"/>
<path fill-rule="evenodd" clip-rule="evenodd" d="M385.332 456.082C382.404 449.033 376.668 443.442 369.522 440.708L370.008 439.437C377.504 442.305 383.518 448.166 386.588 455.559L385.332 456.082Z" fill="#5068A9"/>
<path fill-rule="evenodd" clip-rule="evenodd" d="M563.412 277.902C548.002 277.902 535.51 290.394 535.51 305.804C535.51 321.214 548.002 333.706 563.412 333.706C578.822 333.706 591.314 321.214 591.314 305.804C591.314 290.394 578.822 277.902 563.412 277.902ZM534.149 305.804C534.149 289.642 547.25 276.541 563.412 276.541C579.573 276.541 592.675 289.642 592.675 305.804C592.675 321.965 579.573 335.067 563.412 335.067C547.25 335.067 534.149 321.965 534.149 305.804Z" fill="#86A6DF"/>
<path fill-rule="evenodd" clip-rule="evenodd" d="M564.093 305.805V459.876C564.093 461.755 562.569 463.278 560.69 463.278H363.732V461.917H560.69C561.818 461.917 562.732 461.003 562.732 459.876V305.805H564.093Z" fill="#86A6DF"/>
<path d="M426.611 305.225C426.611 305.225 441.936 384.181 464.23 389.754C486.523 395.327 452.25 298.537 452.25 298.537L445.561 272.899H426.611V305.225Z" fill="#73A5FF"/>
<path d="M421.039 250.604C421.039 250.604 457.823 257.293 461.167 284.045C464.511 310.798 481.545 389.933 481.545 389.933L464.23 389.753L451.314 298.888C451.872 290.038 446.667 281.835 438.421 278.571L426.611 273.897L421.039 250.604Z" fill="#5068A9"/>
<path d="M427.465 319.022C430.699 318.667 432.85 314.1 432.272 308.821L426.097 252.523C425.61 248.087 423.318 244.44 420.563 243.714L417.52 242.912C413.487 241.849 410.413 247.359 411.452 253.794L420.668 310.894C421.463 315.822 424.419 319.356 427.465 319.022Z" fill="#5068A9"/>
<path d="M478.458 397.151C491.186 397.151 501.504 386.833 501.504 374.105C501.504 361.377 491.186 351.059 478.458 351.059C465.73 351.059 455.412 361.377 455.412 374.105C455.412 386.833 465.73 397.151 478.458 397.151Z" fill="#73A5FF"/>
<path d="M498.18 276.66L518.03 280.698C518.03 280.698 498.001 383.703 491.002 387.605C482.436 392.38 469.712 392.766 463.798 376.799C458.805 363.316 494.7 298.881 498.18 276.66Z" fill="#5068A9"/>
<path d="M381.603 137.347V152.738L317.221 148.594V137.347C317.221 136.34 317.343 135.36 317.568 134.422C318.969 128.604 324.461 124.263 331.027 124.263H367.797C373.866 124.263 379.024 127.978 380.868 133.135C381.344 134.456 381.603 135.871 381.603 137.347Z" fill="#86A6DF"/>
<path d="M282.935 304.96C282.935 304.96 293.757 413.312 271.464 418.885C249.17 424.459 251.049 298.536 251.049 298.536L257.737 272.898L280.951 271.634L282.935 304.96Z" fill="#73A5FF"/>
<path d="M282.26 250.604C282.26 250.604 245.475 257.293 242.131 284.045C238.787 310.798 254.148 419.066 254.148 419.066L271.463 418.885L251.985 298.888C251.426 290.038 256.632 281.835 264.877 278.571L276.686 273.897L282.26 250.604Z" fill="#5068A9"/>
<path d="M281.715 319.441C278.465 319.584 275.641 315.398 275.408 310.093L272.921 253.511C272.724 249.053 274.433 245.099 277.046 243.961C277.046 243.961 278.031 243.149 282.935 243.763C287.837 244.376 289.04 246.323 288.995 252.84L287.192 310.371C287.158 315.362 284.776 319.306 281.715 319.441ZM270.933 428.92C283.661 428.92 293.979 418.602 293.979 405.874C293.979 393.146 283.661 382.828 270.933 382.828C258.205 382.828 247.887 393.146 247.887 405.874C247.887 418.602 258.205 428.92 270.933 428.92Z" fill="#73A5FF"/>
<path d="M396.785 272.898L389.442 330.862C365.311 332.882 340.483 333.184 314.954 330.862L307.611 272.898C322.549 259.745 385.579 259.797 396.785 272.898Z" fill="#86A6DF"/>
<path d="M389.442 276.995L383.307 325.412C363.152 327.099 342.412 327.351 321.089 325.412L314.954 276.995C327.432 266.007 380.081 266.052 389.442 276.995Z" fill="#5068A9"/>
<path d="M379.47 282.557L374.978 318.01C360.219 319.246 345.032 319.431 329.418 318.01L324.926 282.557C334.063 274.512 372.615 274.545 379.47 282.557Z" fill="#73A5FF"/>
<path d="M363.251 195.695C364.366 198.618 360.487 208.307 349.774 207.771C342.934 207.429 337.153 199.588 338.289 195.695C346.86 197.623 355.204 197.795 363.251 195.695Z" fill="#5068A9"/>
<path fill-rule="evenodd" clip-rule="evenodd" d="M377.985 123.984C378.597 121.537 381.077 120.049 383.524 120.662L388.488 121.903C390.935 122.516 392.423 124.995 391.81 127.442L386.783 147.541C386.171 149.987 383.691 151.475 381.245 150.863L376.28 149.621C373.833 149.009 372.346 146.529 372.957 144.082L377.985 123.984ZM383.253 121.743C381.404 121.28 379.529 122.405 379.066 124.254L374.038 144.353C373.576 146.202 374.701 148.077 376.55 148.54L381.515 149.781C383.365 150.244 385.239 149.12 385.702 147.27L390.729 127.172C391.192 125.322 390.068 123.448 388.218 122.985L383.253 121.743Z" fill="#5068A9"/>
<path fill-rule="evenodd" clip-rule="evenodd" d="M391.956 102.236L382.09 141.357L381.009 141.085L390.875 101.963L391.956 102.236Z" fill="#5068A9"/>
<path opacity="0.3" d="M391.416 112.638C385.605 112.638 380.878 107.911 380.878 102.1C380.878 96.2896 385.605 91.5625 391.416 91.5625C397.227 91.5625 401.953 96.2896 401.953 102.1C401.953 107.911 397.227 112.638 391.416 112.638Z" fill="#73A5FF"/>
<path opacity="0.3" d="M391.415 109.235C387.48 109.235 384.279 106.034 384.279 102.099C384.279 98.1646 387.48 94.9639 391.415 94.9639C395.35 94.9639 398.551 98.1646 398.551 102.099C398.551 106.034 395.35 109.235 391.415 109.235Z" fill="#73A5FF"/>
<path d="M391.416 105.833C393.478 105.833 395.149 104.162 395.149 102.1C395.149 100.038 393.478 98.3662 391.416 98.3662C389.354 98.3662 387.682 100.038 387.682 102.1C387.682 104.162 389.354 105.833 391.416 105.833Z" fill="#73A5FF"/>
<path d="M316.943 340.435C318.186 340.435 319.194 339.427 319.194 338.183C319.194 336.94 318.186 335.931 316.943 335.931C315.699 335.931 314.691 336.94 314.691 338.183C314.691 339.427 315.699 340.435 316.943 340.435Z" fill="#5068A9"/>
<path d="M323.038 340.435C324.281 340.435 325.29 339.427 325.29 338.183C325.29 336.94 324.281 335.931 323.038 335.931C321.794 335.931 320.786 336.94 320.786 338.183C320.786 339.427 321.794 340.435 323.038 340.435Z" fill="#86A6DF"/>
<path d="M329.133 340.435C330.377 340.435 331.385 339.427 331.385 338.183C331.385 336.94 330.377 335.931 329.133 335.931C327.89 335.931 326.882 336.94 326.882 338.183C326.882 339.427 327.89 340.435 329.133 340.435Z" fill="#73A5FF"/>
<path d="M363.346 195.601C363.517 195.735 363.563 196.057 363.528 196.487C363.285 199.445 360.555 200.913 357.631 201.421C352.788 202.262 345.303 201.571 341.108 199.82C339.542 199.165 338.139 198.061 338.179 196.364C338.187 196.05 338.246 195.78 338.384 195.601C346.959 197.64 355.296 197.774 363.346 195.601Z" fill="#F8F8F8"/>
<path d="M299.851 462.169L316.943 450.551C316.943 450.551 290.667 400.3 281.415 396.84C270.092 392.607 260.626 397.321 258.491 408.496C256.357 419.672 281.408 448.215 299.851 462.169Z" fill="#5068A9"/>
<path d="M311.617 444.095C317.832 439.612 323.596 435.813 331.551 436.5C335.95 437.775 341.2 440.133 344.309 443.296C347.42 446.459 349.045 450.607 350.166 454.132C350.695 455.799 349.994 455.997 349.019 456.379C347.716 456.889 346.031 456.581 345.085 455.2C343.436 452.79 342.193 450.038 339.339 448.635C336.484 447.233 332.328 446.622 329.604 447.611C326.88 448.6 326.645 449.997 327.136 452.286C322.29 445.073 320.079 447.086 311.617 444.095ZM325.198 474.728C325.198 474.728 312.627 473.075 304.606 468.209C294.518 462.089 300.652 452.271 300.652 452.271L325.198 474.728Z" fill="#5068A9"/>
<path fill-rule="evenodd" clip-rule="evenodd" d="M344.07 443.562C339.456 448.388 336.851 455.1 336.851 462.597H333.449C333.449 454.309 336.335 446.729 341.611 441.211C346.899 435.681 354.499 432.313 363.732 432.313V435.716C355.366 435.716 348.674 438.747 344.07 443.562Z" fill="#73A5FF"/>
<path d="M519.196 284.633C516.354 288.256 503.911 289.663 495.517 280.699C487.122 271.736 476.479 252.099 485.148 245.944C488.738 243.394 491.489 261.001 493.443 255.721C497.479 244.812 495.894 216.726 505.24 216.726C508.438 216.726 504.034 225.99 506.775 229.65C509.897 233.818 509.406 237.485 511.515 243.512C514.962 253.36 527.425 258.92 526.59 262.913C524.795 271.495 519.196 284.633 519.196 284.633Z" fill="#5068A9"/>
<path d="M392.75 374.986L390.476 379.934H313.921L311.729 375.168L392.75 374.986Z" fill="black" fill-opacity="0.5"/>
<path opacity="0.25" d="M381.603 156.71L317.221 152.567V141.319C317.221 140.312 317.221 138.273 317.221 138.273C339.151 128.543 362.948 129.313 381.373 137.084C381.921 139.385 381.632 140.248 381.603 141.319V156.71Z" fill="#5068A9"/>
<path d="M392.924 387.605H311.472C308.842 387.605 306.71 385.474 306.71 382.843C306.71 380.213 308.842 378.081 311.472 378.081H392.924C395.554 378.081 397.686 380.213 397.686 382.843C397.686 385.474 395.554 387.605 392.924 387.605Z" fill="#73A5FF"/>
<path opacity="0.25" d="M322.45 192.169C322.45 192.169 377.059 197.105 380.838 194.805C380.838 194.805 381.311 192.477 381.432 191.267L318.877 189.641L322.45 192.169Z" fill="#5068A9"/>
<path d="M378.117 192.169H320.458C320.458 192.169 309.676 191.676 307.686 186.613C304.34 178.101 300.995 169.59 297.65 161.079C296.024 156.943 297.341 152.189 300.935 149.576C334.772 124.978 374.865 129.456 398.335 149.267C401.574 152.002 402.731 156.486 401.181 160.432C397.75 169.159 394.32 177.886 390.89 186.613C388.899 191.676 378.117 192.169 378.117 192.169Z" fill="#5068A9"/>
<path d="M374.581 178.28C358.329 173.58 340.495 173.58 324.242 178.28C321.444 179.085 318.234 178.207 317.002 176.117C315.805 174.014 314.608 171.911 313.411 169.808C312.178 167.725 314.035 164.98 317.651 163.936C338.16 158.006 360.663 158.005 381.172 163.936C384.789 164.98 386.645 167.726 385.413 169.808C384.216 171.911 383.019 174.014 381.821 176.117C380.589 178.207 377.379 179.085 374.581 178.28Z" fill="#F8F8F8"/>
<path d="M338.826 169.785C333.289 169.36 327.557 170.551 322.647 173.147C321.801 173.592 320.711 173.525 320.175 172.935C319.65 172.34 319.125 171.744 318.6 171.148C318.064 170.561 318.478 169.554 319.57 168.977C325.766 165.701 332.999 164.198 339.986 164.734C341.219 164.828 341.999 165.587 341.742 166.338C341.498 167.094 341.254 167.85 341.009 168.606C340.753 169.36 339.78 169.857 338.826 169.785ZM359.786 169.785C365.324 169.36 371.055 170.551 375.965 173.147C376.811 173.592 377.901 173.525 378.437 172.935C378.962 172.34 379.487 171.744 380.012 171.148C380.548 170.561 380.135 169.554 379.042 168.977C372.846 165.701 365.613 164.198 358.626 164.734C357.394 164.828 356.614 165.587 356.87 166.338C357.115 167.094 357.359 167.85 357.603 168.606C357.86 169.36 358.833 169.857 359.786 169.785Z" fill="#5068A9"/>
<path fill-rule="evenodd" clip-rule="evenodd" d="M328.314 311.982C328.314 311.794 328.467 311.642 328.655 311.642H375.742C375.93 311.642 376.082 311.794 376.082 311.982C376.082 312.17 375.93 312.322 375.742 312.322H328.655C328.467 312.322 328.314 312.17 328.314 311.982ZM328.314 308.472C328.314 308.284 328.467 308.131 328.655 308.131H375.742C375.93 308.131 376.082 308.284 376.082 308.472C376.082 308.66 375.93 308.812 375.742 308.812H328.655C328.467 308.812 328.314 308.66 328.314 308.472ZM328.314 304.96C328.314 304.771 328.467 304.619 328.655 304.619H375.742C375.93 304.619 376.082 304.771 376.082 304.96C376.082 305.147 375.93 305.3 375.742 305.3H328.655C328.467 305.3 328.314 305.147 328.314 304.96Z" fill="#5068A9"/>
<path opacity="0.15" d="M504.277 237.833C525.87 237.833 543.375 220.328 543.375 198.735C543.375 177.141 525.87 159.637 504.277 159.637C482.683 159.637 465.179 177.141 465.179 198.735C465.179 220.328 482.683 237.833 504.277 237.833Z" fill="#73A5FF"/>
<path opacity="0.15" d="M504.277 229.357C521.189 229.357 534.899 215.646 534.899 198.734C534.899 181.823 521.189 168.112 504.277 168.112C487.365 168.112 473.655 181.823 473.655 198.734C473.655 215.646 487.365 229.357 504.277 229.357Z" fill="#73A5FF"/>
<path opacity="0.25" d="M504.277 220.881C516.507 220.881 526.422 210.966 526.422 198.735C526.422 186.504 516.507 176.589 504.277 176.589C492.045 176.589 482.13 186.504 482.13 198.735C482.13 210.966 492.045 220.881 504.277 220.881Z" fill="#73A5FF"/>
<path opacity="0.5" d="M504.277 212.405C511.827 212.405 517.947 206.284 517.947 198.735C517.947 191.185 511.827 185.064 504.277 185.064C496.727 185.064 490.607 191.185 490.607 198.735C490.607 206.284 496.727 212.405 504.277 212.405Z" fill="#73A5FF"/>
<path d="M504.277 205.756C508.155 205.756 511.299 202.612 511.299 198.735C511.299 194.856 508.155 191.713 504.277 191.713C500.399 191.713 497.255 194.856 497.255 198.735C497.255 202.612 500.399 205.756 504.277 205.756Z" fill="#73A5FF"/>
<path fill-rule="evenodd" clip-rule="evenodd" d="M21.3252 96.0702C21.3252 95.8823 21.4775 95.73 21.6654 95.73H87.79C87.9776 95.73 88.1299 95.8823 88.1299 96.0702C88.1299 96.258 87.9776 96.4104 87.79 96.4104H21.6654C21.4775 96.4104 21.3252 96.258 21.3252 96.0702ZM184.545 116.132C184.545 115.944 184.698 115.792 184.885 115.792H251.01C251.198 115.792 251.35 115.944 251.35 116.132C251.35 116.32 251.198 116.473 251.01 116.473H184.885C184.698 116.473 184.545 116.32 184.545 116.132ZM33.425 260.818C33.425 260.631 33.5773 260.478 33.7652 260.478H99.8895C100.078 260.478 100.23 260.631 100.23 260.818C100.23 261.007 100.078 261.158 99.8895 261.158H33.7652C33.5773 261.158 33.425 261.007 33.425 260.818Z" fill="#5068A9"/>
<path d="M40.4994 108.946C42.3566 108.946 43.8622 107.44 43.8622 105.583C43.8622 103.726 42.3566 102.22 40.4994 102.22C38.6422 102.22 37.1367 103.726 37.1367 105.583C37.1367 107.44 38.6422 108.946 40.4994 108.946Z" fill="#86A6DF"/>
<path d="M52.765 108.946C54.6223 108.946 56.1278 107.44 56.1278 105.583C56.1278 103.726 54.6223 102.22 52.765 102.22C50.9078 102.22 49.4023 103.726 49.4023 105.583C49.4023 107.44 50.9078 108.946 52.765 108.946Z" fill="#73A5FF"/>
<path opacity="0.15" d="M588.484 400.142H391.465V410.96H588.484V400.142ZM588.484 421.986H391.465V432.804H588.484V421.986Z" fill="#86A6DF"/>
<path fill-rule="evenodd" clip-rule="evenodd" d="M386.763 205.811C386.763 205.624 386.916 205.471 387.103 205.471H461.519C461.707 205.471 461.859 205.624 461.859 205.811C461.859 206 461.707 206.152 461.519 206.152H387.103C386.916 206.152 386.763 206 386.763 205.811ZM407.72 200.474C407.72 200.287 407.872 200.134 408.06 200.134H461.518C461.707 200.134 461.859 200.287 461.859 200.474C461.859 200.663 461.707 200.815 461.518 200.815H408.06C407.872 200.815 407.72 200.663 407.72 200.474ZM407.72 195.138C407.72 194.95 407.872 194.798 408.06 194.798H475.536C475.725 194.798 475.877 194.95 475.877 195.138C475.877 195.326 475.725 195.478 475.536 195.478H408.06C407.872 195.478 407.72 195.326 407.72 195.138ZM407.72 189.801C407.72 189.613 407.872 189.46 408.06 189.46H461.518C461.707 189.46 461.859 189.613 461.859 189.801C461.859 189.989 461.707 190.141 461.518 190.141H408.06C407.872 190.141 407.72 189.989 407.72 189.801Z" fill="#5068A9"/>
<path d="M427.465 319.022C430.699 318.667 432.85 314.1 432.272 308.821L426.097 252.523C425.61 248.087 423.318 244.44 420.563 243.714L417.52 242.912C413.487 241.849 410.413 247.359 411.452 253.794L420.668 310.894C421.463 315.822 424.419 319.356 427.465 319.022Z" fill="#73A5FF"/>
<path d="M389.442 276.995L383.307 325.412C363.152 327.099 342.412 327.351 321.089 325.412L314.954 276.995C327.432 266.007 380.081 266.052 389.442 276.995Z" fill="#5068A9"/>
<path d="M379.47 282.557L374.978 318.01C360.219 319.246 345.032 319.431 329.418 318.01L324.926 282.557C334.063 274.512 372.615 274.545 379.47 282.557Z" fill="#73A5FF"/>
<path d="M363.251 195.695C364.366 198.618 360.487 208.307 349.774 207.771C342.934 207.429 337.153 199.588 338.289 195.695C346.86 197.623 355.204 197.795 363.251 195.695Z" fill="#324E7B"/>
<path d="M316.943 340.435C318.186 340.435 319.194 339.427 319.194 338.183C319.194 336.94 318.186 335.931 316.943 335.931C315.699 335.931 314.691 336.94 314.691 338.183C314.691 339.427 315.699 340.435 316.943 340.435Z" fill="#73A5FF"/>
<path d="M323.038 340.435C324.281 340.435 325.29 339.427 325.29 338.183C325.29 336.94 324.281 335.931 323.038 335.931C321.794 335.931 320.786 336.94 320.786 338.183C320.786 339.427 321.794 340.435 323.038 340.435Z" fill="#86A6DF"/>
<path d="M329.133 340.435C330.377 340.435 331.385 339.427 331.385 338.183C331.385 336.94 330.377 335.931 329.133 335.931C327.89 335.931 326.882 336.94 326.882 338.183C326.882 339.427 327.89 340.435 329.133 340.435Z" fill="#73A5FF"/>
<path d="M363.346 195.601C363.517 195.735 363.563 196.057 363.528 196.487C363.285 199.445 360.555 200.913 357.631 201.421C352.788 202.262 345.303 201.571 341.108 199.82C339.542 199.165 338.139 198.061 338.179 196.364C338.187 196.05 338.246 195.78 338.384 195.601C346.959 197.64 355.296 197.774 363.346 195.601Z" fill="#F8F8F8"/>
<path d="M325.198 474.728C325.198 474.728 312.627 473.075 304.606 468.209C294.518 462.089 300.652 452.271 300.652 452.271L325.198 474.728Z" fill="#5068A9"/>
<path opacity="0.25" d="M322.45 192.169C322.45 192.169 377.059 197.105 380.838 194.805C380.838 194.805 381.311 192.477 381.432 191.267L318.877 189.641L322.45 192.169Z" fill="#5068A9"/>
<path fill-rule="evenodd" clip-rule="evenodd" d="M328.314 311.982C328.314 311.794 328.467 311.641 328.655 311.641H375.742C375.93 311.641 376.082 311.794 376.082 311.982C376.082 312.169 375.93 312.322 375.742 312.322H328.655C328.467 312.322 328.314 312.169 328.314 311.982ZM328.314 308.472C328.314 308.284 328.467 308.131 328.655 308.131H375.742C375.93 308.131 376.082 308.284 376.082 308.472C376.082 308.659 375.93 308.812 375.742 308.812H328.655C328.467 308.812 328.314 308.659 328.314 308.472ZM328.314 304.959C328.314 304.771 328.467 304.619 328.655 304.619H375.742C375.93 304.619 376.082 304.771 376.082 304.959C376.082 305.147 375.93 305.299 375.742 305.299H328.655C328.467 305.299 328.314 305.147 328.314 304.959ZM21.3252 96.0702C21.3252 95.8823 21.4775 95.73 21.6654 95.73H87.79C87.9776 95.73 88.1299 95.8823 88.1299 96.0702C88.1299 96.258 87.9776 96.4104 87.79 96.4104H21.6654C21.4775 96.4104 21.3252 96.258 21.3252 96.0702Z" fill="#5068A9"/>
<path d="M40.4994 108.946C42.3566 108.946 43.8622 107.44 43.8622 105.583C43.8622 103.726 42.3566 102.22 40.4994 102.22C38.6422 102.22 37.1367 103.726 37.1367 105.583C37.1367 107.44 38.6422 108.946 40.4994 108.946Z" fill="#86A6DF"/>
<path d="M52.765 108.946C54.6223 108.946 56.1278 107.44 56.1278 105.583C56.1278 103.726 54.6223 102.22 52.765 102.22C50.9078 102.22 49.4023 103.726 49.4023 105.583C49.4023 107.44 50.9078 108.946 52.765 108.946Z" fill="#73A5FF"/>
<path d="M303.857 469.732C295.716 462.207 309.903 435.993 324.767 443.094C331.742 446.426 353.624 454.808 352.198 458.046C350.773 461.284 338.748 476.148 328.54 478.347C315.165 481.228 303.857 469.732 303.857 469.732Z" fill="#5068A9"/>
</g>
<defs>
<filter id="filter0_d_360_3430" x="-4" y="0" width="594" height="594" filterUnits="userSpaceOnUse" color-interpolation-filters="sRGB">
<feFlood flood-opacity="0" result="BackgroundImageFix"/>
<feColorMatrix in="SourceAlpha" type="matrix" values="0 0 0 0 0 0 0 0 0 0 0 0 0 0 0 0 0 0 127 0" result="hardAlpha"/>
<feOffset dy="4"/>
<feGaussianBlur stdDeviation="2"/>
<feComposite in2="hardAlpha" operator="out"/>
<feColorMatrix type="matrix" values="0 0 0 0 0 0 0 0 0 0 0 0 0 0 0 0 0 0 0.25 0"/>
<feBlend mode="normal" in2="BackgroundImageFix" result="effect1_dropShadow_360_3430"/>
<feBlend mode="normal" in="SourceGraphic" in2="effect1_dropShadow_360_3430" result="shape"/>
</filter>
<clipPath id="clip0_360_3430">
<rect width="586" height="586" fill="white"/>
</clipPath>
</defs>
</svg>
