<svg width="960" height="1080" viewBox="0 0 960 1080" fill="none" xmlns="http://www.w3.org/2000/svg">
<g clip-path="url(#clip0_360_3711)" filter="url(#filter0_f_360_3711)">
<path d="M1092 -64H-133V1161H1092V-64Z" fill="black"/>
<path d="M479.5 1467.25C986.912 1467.25 1398.25 1055.91 1398.25 548.5C1398.25 41.0884 986.912 -370.25 479.5 -370.25C-27.9116 -370.25 -439.25 41.0884 -439.25 548.5C-439.25 1055.91 -27.9116 1467.25 479.5 1467.25Z" fill="black"/>
<path d="M479.5 1314.12C902.343 1314.12 1245.12 971.343 1245.12 548.5C1245.12 125.657 902.343 -217.125 479.5 -217.125C56.657 -217.125 -286.125 125.657 -286.125 548.5C-286.125 971.343 56.657 1314.12 479.5 1314.12Z" fill="#111325"/>
<path d="M479.5 1161C817.774 1161 1092 886.774 1092 548.5C1092 210.226 817.774 -64 479.5 -64C141.226 -64 -133 210.226 -133 548.5C-133 886.774 141.226 1161 479.5 1161Z" fill="#21264A"/>
<path d="M479.5 1007.88C733.206 1007.88 938.875 802.206 938.875 548.5C938.875 294.794 733.206 89.125 479.5 89.125C225.794 89.125 20.125 294.794 20.125 548.5C20.125 802.206 225.794 1007.88 479.5 1007.88Z" fill="#32396F"/>
<path d="M479.5 854.75C648.637 854.75 785.75 717.637 785.75 548.5C785.75 379.363 648.637 242.25 479.5 242.25C310.363 242.25 173.25 379.363 173.25 548.5C173.25 717.637 310.363 854.75 479.5 854.75Z" fill="#424C94"/>
<path d="M479.5 701.625C564.069 701.625 632.625 633.069 632.625 548.5C632.625 463.931 564.069 395.375 479.5 395.375C394.931 395.375 326.375 463.931 326.375 548.5C326.375 633.069 394.931 701.625 479.5 701.625Z" fill="#5863B4"/>
</g>
<defs>
<filter id="filter0_f_360_3711" x="-163" y="-94" width="1285" height="1285" filterUnits="userSpaceOnUse" color-interpolation-filters="sRGB">
<feFlood flood-opacity="0" result="BackgroundImageFix"/>
<feBlend mode="normal" in="SourceGraphic" in2="BackgroundImageFix" result="shape"/>
<feGaussianBlur stdDeviation="15" result="effect1_foregroundBlur_360_3711"/>
</filter>
<clipPath id="clip0_360_3711">
<rect width="1225" height="1225" fill="white" transform="translate(-133 -64)"/>
</clipPath>
</defs>
</svg>
