<svg width="1709" height="1080" viewBox="0 0 1709 1080" fill="none" xmlns="http://www.w3.org/2000/svg">
<path d="M766.057 991.517C593.773 957.155 413.923 940.762 237.541 960.938C156.837 969.923 77.2362 987.104 0 1013.58V1140H1330.04C1147.35 1087.67 966.241 1032.66 782.135 994.67C776.776 993.566 771.417 992.621 766.057 991.517Z" fill="#CBCFE9" fill-opacity="0.27"/>
<path d="M2522 -121H0V1013.58C77.2362 987.104 156.837 969.765 237.541 960.78C413.923 940.762 593.773 956.997 766.057 991.36C771.417 992.463 776.776 993.566 782.135 994.512C966.241 1032.34 1147.35 1087.51 1330.04 1139.84H2522V-121Z" fill="#D1D4EB" fill-opacity="0.27"/>
<path d="M754.078 794.801C759.122 796.062 764.166 797.481 769.052 798.742C1078.31 881.495 1381.74 1009.17 1704.56 1077.11C1979.14 1134.8 2255.46 1123.13 2522 1061.03V-121H0V785.186C82.4379 757.444 167.871 741.524 253.934 736.48C423.066 726.077 592.197 752.558 754.078 794.801Z" fill="#D6DAEE" fill-opacity="0.27"/>
<path d="M0 -121V555.842C87.6395 526.839 178.904 512.81 270.169 512.18C432.208 510.919 590.463 547.961 741.941 598.085C746.67 599.662 751.241 601.238 755.97 602.814C1045.37 700.542 1332.4 833.104 1642.45 905.612C1936.74 974.494 2235.6 959.835 2521.84 885.751V-121H0Z" fill="#DCDFF0" fill-opacity="0.27"/>
<path d="M286.562 287.879C441.35 297.337 589.045 343.363 729.961 401.527C734.375 403.261 738.631 405.152 743.044 406.886C1012.58 519.746 1283.23 656.722 1580.51 734.273C1893.86 815.923 2216.37 798.584 2522 710.945V-121H0V325.394C92.9987 294.5 190.096 282.047 286.562 287.879Z" fill="#E2E4F3" fill-opacity="0.27"/>
<path d="M2522 -121H0V93.8429C98.2004 60.8993 201.287 50.496 302.955 63.5789C450.492 82.6515 587.468 138.766 717.982 204.811C722.08 206.86 726.021 208.909 730.119 210.958C979.797 338.792 1234.05 480.339 1518.72 562.777C1850.52 658.929 2197.77 640.014 2522.16 536.612V-121H2522Z" fill="#E3E6F4" fill-opacity="0.27"/>
<path d="M717.036 15.0304C946.853 157.996 1184.71 303.484 1456.61 391.281C1785.42 497.52 2136.45 487.117 2462.1 382.927C2482.28 376.465 2502.14 369.687 2522.16 362.593V-121H454.118C542.388 -87.4259 625.456 -41.2418 705.845 8.2525C709.628 10.4592 713.253 12.8236 717.036 15.0304Z" fill="#E5E7F4" fill-opacity="0.27"/>
<path d="M2522 -121H784.973C971.128 14.2423 1168.79 138.293 1394.67 219.785C1696.99 328.862 2025.17 337.531 2332.53 253.044C2396.85 235.39 2460.37 213.323 2522.16 187.315V-121H2522Z" fill="#E6E9F5" fill-opacity="0.27"/>
<path d="M2202.81 123.003C2277.21 106.295 2350.35 83.1244 2421.28 53.9637C2455.48 39.9351 2489.06 24.3302 2522 7.46437V-121H1014.16C1113.31 -55.2704 1218.6 2.26275 1332.72 48.2892C1608.41 159.73 1913.88 188.103 2202.81 123.003Z" fill="#E8EAF5" fill-opacity="0.27"/>
<path d="M2073.24 -6.87949C2191.93 -26.7402 2307.95 -65.3584 2414.97 -121H1275.34C1523.92 -9.08624 1804.33 38.2013 2073.24 -6.87949Z" fill="#E9ECF6" fill-opacity="0.27"/>
</svg>
